<?xml version="1.0" encoding="UTF-8"?>
<svg width="1096" height="436" viewBox="0 0 1096 436" fill="none" xmlns="http://www.w3.org/2000/svg">
  <title>True Auto Growth TAG logo - inverted blue and white</title>
  <g fill-rule="evenodd" clip-rule="evenodd">
    <path d="M 391.1 21 L 345 84.4 L 226 85.1 L 225.5 306 L 224 309.2 L 162 309.5 L 158.8 308 L 158 85.1 L 47 84 L 19.6 21 L 21 19.6 L 388 19.5 L 390 19.6 Z
M 1051 308.9 L 780 309.5 L 769 307.2 L 753 300.2 L 745 294.5 L 737 286.3 L 729.7 275 L 725.8 266 L 722.5 250 L 722.5 81 L 726.8 64 L 732.8 52 L 739.5 43 L 755 30.8 L 766 25.8 L 779 22.5 L 1050.8 23 L 1050.2 26 L 1011.2 83 L 1007 86.4 L 796 86.5 L 791.7 88 L 788.8 91 L 787.5 96 L 787.5 231 L 789.8 242 L 796 245.5 L 984 245.4 L 985.4 244 L 985.5 198 L 984 195.6 L 866.2 195 L 866.3 193 L 904 136.8 L 1050 136.8 L 1051.5 140 Z
M 292.2 309 L 294.8 303 L 477 24 L 550 24 L 583.2 79 L 585.4 85 L 548 144.3 L 546 145.5 L 543.8 143 L 516.2 96 L 514 93.5 L 513 93.7 L 373 308.5 L 370 309.5 Z
M 717.8 309 L 715 309.5 L 641 309.4 L 639 308.3 L 635.8 303 L 633.2 298 L 627.8 289 L 623.2 280 L 618.8 273 L 611.2 259 L 606.8 252 L 603.2 245 L 601.8 243 L 595.2 231 L 596.8 228 L 608.8 210 L 611.2 207 L 631.8 176 L 635.5 171 L 636.9 170 L 638 170.1 L 640.2 173 L 642.8 178 L 654.2 197 L 657.8 204 L 659.2 206 L 669.8 225 L 677.2 237 L 683.8 249 L 712.2 297 L 718.1 308 Z
M 573 415.5 L 568 415.5 L 567 415.2 L 566 414.8 L 563 414.2 L 562 413.8 L 560 413.2 L 557.7 412 L 555.3 410 L 553 408.5 L 551.8 407 L 551.2 406 L 549.8 404 L 547.8 400 L 546.5 396 L 546.5 388 L 546.8 386 L 547.2 385 L 547.8 382 L 548.8 380 L 550.2 378 L 551 376.7 L 554 373.5 L 558 370.8 L 560 369.8 L 567 367.5 L 573 367.5 L 574 367.8 L 575 368.2 L 578 368.8 L 579 369.2 L 581 369.8 L 583 370.8 L 585 372.2 L 586.3 373 L 589 375.5 L 590.2 377 L 593.2 383 L 594.5 387 L 594.5 395 L 594.2 396 L 593.8 397 L 593.2 400 L 591.2 404 L 589.8 406 L 589 407.3 L 587 409.5 L 583 412.2 L 581 413.2 L 579 413.8 L 578 414.2 L 575 414.8 L 574 415.2 Z
M 51 414.2 L 49 414.5 L 44 414.4 L 43 413.9 L 42.6 413 L 42.5 410 L 41.8 408 L 41.5 406 L 41.5 400 L 42.5 397 L 42.5 389 L 42.2 387 L 41.5 385 L 41.6 379 L 41.4 378 L 41 377.7 L 40 377.5 L 30 377.4 L 29.1 377 L 28.6 376 L 28.5 373 L 28.6 370 L 29.1 369 L 30 368.6 L 62 368.5 L 64 368.6 L 65 369.1 L 65.4 370 L 65.5 375 L 65.4 376 L 64.9 377 L 64 377.4 L 54 377.6 L 53 378.1 L 52.6 379 L 52.5 411 L 52.2 413 Z
M 134.4 414 L 133 414.5 L 125 414.4 L 124 414 L 121.8 411 L 119 406.7 L 117 404.3 L 116.2 403 L 114 400 L 113 399.6 L 107 399.6 L 106 400.1 L 105.6 401 L 105.4 413 L 104.9 414 L 104 414.4 L 98 414.5 L 97 414.4 L 96 413.9 L 95.6 413 L 95.5 372 L 95.6 370 L 96.1 369 L 97 368.6 L 121 368.5 L 125 369.8 L 129 371.8 L 131.5 374 L 132.2 375 L 133.2 377 L 134.5 381 L 134.5 385 L 134.2 387 L 133.2 390 L 131 393.3 L 130 394.2 L 126 396.8 L 125.2 398 L 125.8 400 L 128.2 403 L 134.2 412 L 134.6 413 Z
M 198.3 411 L 195 413.2 L 192 414.2 L 189 414.8 L 187 415.5 L 182 415.5 L 180 414.8 L 177 414.2 L 174 413.2 L 170.7 411 L 169 409.3 L 166.8 406 L 165.8 404 L 165.2 401 L 164.5 399 L 164.6 370 L 165.1 369 L 166 368.6 L 172 368.5 L 173 368.6 L 174 369.1 L 174.4 370 L 174.5 397 L 174.8 399 L 176.8 403 L 177.7 404 L 180 405.2 L 183 405.5 L 188 405.5 L 189 405.2 L 191.5 403 L 193.2 401 L 193.8 398 L 194.5 396 L 194.6 370 L 195 369.1 L 196 368.6 L 199 368.5 L 203 368.6 L 204 369.1 L 204.4 370 L 204.5 398 L 203.8 400 L 203.2 403 L 201.2 407 Z
M 270.9 414 L 270 414.4 L 240 414.5 L 238 414.4 L 237 413.9 L 236.6 413 L 236.5 372 L 236.6 370 L 237.1 369 L 238 368.6 L 268 368.5 L 270 368.6 L 271 369.1 L 271.4 370 L 271.5 375 L 271.4 376 L 270.9 377 L 270 377.4 L 249 377.6 L 248 378.1 L 247.6 379 L 247.5 381 L 247.6 385 L 248 385.9 L 249 386.4 L 266 386.6 L 267 386.8 L 268 387.7 L 268.5 390 L 268.4 394 L 268 394.9 L 267 395.4 L 249 395.6 L 248.1 396 L 247.6 397 L 247.5 403 L 247.6 404 L 248 404.9 L 249 405.4 L 270 405.6 L 270.9 406 L 271.4 407 L 271.5 412 L 271.4 413 Z
M 386.9 414 L 386 414.4 L 379 414.4 L 378.1 414 L 375.8 409 L 375.2 407 L 374 404.7 L 373 403.8 L 372 403.6 L 357 403.5 L 355 403.8 L 353.8 405 L 352.8 407 L 351.2 412 L 350 414 L 349 414.4 L 344 414.5 L 342 414.4 L 341.2 414 L 340.9 413 L 341.8 410 L 343.2 407 L 343.8 405 L 345.2 402 L 345.8 400 L 349.2 393 L 349.8 391 L 352.2 386 L 352.8 384 L 355.2 379 L 355.8 377 L 358.7 371 L 360 369 L 361 368.6 L 368 368.6 L 369 369.1 L 369.8 371 L 372.2 376 L 372.8 378 L 374.2 381 L 374.8 383 L 378.2 390 L 378.8 392 L 380.2 395 L 380.8 397 L 383.2 402 L 383.8 404 L 386.2 409 L 387.2 412 L 387.4 413 Z
M 446.3 412 L 442 414.2 L 439 414.5 L 436 415.5 L 432 415.5 L 429 414.5 L 426 414.2 L 424 413.3 L 421 411.5 L 418 408.3 L 414.8 402 L 414.5 399 L 413.6 396 L 413.6 395 L 414.4 392 L 413.5 389 L 413.5 379 L 414.5 376 L 414.6 370 L 415.1 369 L 416 368.6 L 422 368.5 L 423 368.6 L 424 369.1 L 424.4 370 L 424.5 397 L 424.8 399 L 426.8 403 L 427.7 404 L 430 405.2 L 433 405.5 L 438 405.5 L 439 405.2 L 441 403.5 L 443.2 401 L 443.5 398 L 444.5 395 L 444.6 370 L 445 369.1 L 446 368.6 L 449 368.5 L 453 368.6 L 454 369.1 L 454.4 370 L 454.5 399 L 453.8 401 L 453.2 404 L 452.2 406 L 451 407.5 Z
M 505 414.4 L 499 414.4 L 498 414.2 L 496.8 413 L 496.5 411 L 496.5 381 L 496.6 379 L 496.4 378 L 496 377.7 L 495 377.5 L 485 377.4 L 484.1 377 L 483.6 376 L 483.5 375 L 483.6 370 L 484 369.1 L 485 368.6 L 518 368.5 L 519 368.6 L 519.9 369 L 520.4 370 L 520.5 375 L 520.4 376 L 519.9 377 L 519 377.4 L 509 377.5 L 508 377.7 L 507.6 378 L 507.4 379 L 507.5 381 L 507.5 386 L 506.8 388 L 506.5 390 L 506.4 413 L 506 413.9 Z
M 571 406.4 L 572 406.2 L 573 405.8 L 576 405.2 L 578 403.8 L 579.3 403 L 580.5 402 L 581.2 401 L 583.2 397 L 583.8 395 L 584.2 394 L 584.5 393 L 584.5 390 L 584.2 389 L 583.8 388 L 583.2 385 L 581.8 383 L 581 381.7 L 579 379.5 L 578 378.8 L 576 377.8 L 574 377.2 L 573 376.8 L 572 376.5 L 569 376.5 L 565 377.8 L 563 378.8 L 561.5 380 L 559 382.7 L 557.8 385 L 557.2 387 L 556.8 388 L 556.5 389 L 556.5 393 L 557.8 397 L 559.8 401 L 561 402.5 L 562 403.2 L 566 405.2 L 568 405.8 L 569 406.2 L 570 406.4 Z
M 123.2 387 L 124.2 384 L 124.2 383 L 123.2 380 L 122 378.8 L 120 377.8 L 118 377.5 L 107 377.6 L 106 378.1 L 105.6 379 L 105.6 388 L 105.8 389 L 107 390.2 L 108 390.4 L 118 390.5 L 119 390.2 L 121 389.2 L 122.5 388 Z
M 368 394.4 L 368.8 394 L 369.1 393 L 367.8 390 L 367.2 388 L 365.8 385 L 365.1 383 L 364 382.2 L 363 383.5 L 361.8 386 L 361.2 388 L 359.8 391 L 359.4 393 L 359.6 394 L 360 394.3 L 361 394.5 Z" fill="#FFFFFF"/>
    <path d="M 587 215.9 L 582.8 210 L 576.2 198 L 559.8 171 L 554.7 162 L 553.8 159 L 569.8 133 L 577.2 122 L 579.8 117 L 585.2 109 L 595.8 91 L 601.2 83 L 608.8 70 L 614.2 62 L 633.8 30 L 638.5 23 L 642 20.6 L 714 20.5 L 716.8 21 L 717.1 22 L 710.2 33 L 694.8 56 L 635.2 148 L 615.8 176 L 595 207.3 L 589.5 215 L 588 216.1 Z
M 688 415.5 L 684 415.5 L 681 414.5 L 678 414.2 L 675 413.2 L 671.7 411 L 665.8 405 L 663.8 401 L 662.5 397 L 662.5 385 L 662.8 384 L 666 377.7 L 671 372.5 L 675 369.8 L 678 368.8 L 681 368.5 L 684 367.5 L 690 367.5 L 692 368.2 L 695 368.8 L 699 370.8 L 702.3 373 L 703.1 374 L 703.1 375 L 699 380 L 698 380.4 L 696 380.2 L 694 378.8 L 692 377.8 L 689 376.8 L 685 376.5 L 683 376.8 L 680 377.8 L 676 380.7 L 673.8 384 L 672.8 387 L 672.5 389 L 672.5 394 L 672.8 396 L 673.8 399 L 676.9 403 L 680 405.2 L 685 406.5 L 689 406.2 L 695 403.9 L 695.4 403 L 695.4 398 L 694.9 397 L 694 396.6 L 687 396.4 L 686 395.9 L 685.6 395 L 685.6 390 L 685.8 389 L 687 387.8 L 689 387.5 L 695 387.5 L 697 388.2 L 699 388.5 L 701 388.5 L 703 387.8 L 704 387.9 L 705.2 389 L 705.4 390 L 705.5 406 L 705 408.3 L 701 411.2 L 697 413.2 L 694 414.2 L 691 414.5 Z
M 829 415.5 L 825 415.5 L 824 415.2 L 823 414.8 L 820 414.2 L 819 413.8 L 817 413.2 L 812.7 411 L 808.5 407 L 805.8 403 L 804.8 401 L 803.5 397 L 803.5 385 L 803.8 384 L 805.8 380 L 807.2 378 L 808 376.7 L 811.5 373 L 813 371.8 L 817 369.8 L 819 369.2 L 820 368.8 L 823 368.2 L 824 367.8 L 825 367.5 L 830 367.5 L 832 367.8 L 833 368.2 L 838 369.8 L 842 372.5 L 846 376.5 L 847.2 378 L 850.2 384 L 850.5 385 L 850.5 387 L 851.4 390 L 851.4 391 L 851.2 392 L 850.8 393 L 850.5 394 L 850.5 398 L 850.2 399 L 848.2 403 L 845.5 407 L 842 410.5 L 841 411.2 L 835 414.2 L 834 414.5 L 832 414.5 Z
M 774.8 414 L 774 414.4 L 767 414.5 L 765 414.2 L 764 413.3 L 763 411.7 L 761 409.3 L 755.5 401 L 754 399.8 L 753 399.5 L 748 399.6 L 747 400.1 L 746.6 401 L 746.4 413 L 746 413.9 L 745 414.4 L 742 414.5 L 738 414.4 L 737 413.9 L 736.6 413 L 736.5 372 L 736.6 370 L 737.1 369 L 738 368.6 L 762 368.5 L 763 368.8 L 769 371.8 L 771.5 374 L 772.2 375 L 774.2 379 L 774.5 381 L 774.5 387 L 774.2 388 L 772 392.3 L 770 394.5 L 767.7 396 L 766.5 397 L 765.9 398 L 765.8 399 L 766.8 401 L 770.8 407 L 773 409.7 L 775.1 413 Z
M 928 413.9 L 926 414.5 L 921 414.4 L 920 414 L 919.3 413 L 912.2 392 L 910 387.7 L 909 388 L 907.8 391 L 906.2 396 L 904.8 399 L 904.2 402 L 902.8 405 L 900 413.3 L 899 414.2 L 898 414.4 L 893 414.5 L 891.1 414 L 889.8 411 L 885.2 397 L 883.8 394 L 875.9 370 L 876.2 369 L 878 368.5 L 885 368.6 L 886 369.1 L 888.2 375 L 889.8 382 L 893.8 394 L 895 396.7 L 896 396.7 L 897.2 394 L 904.8 371 L 906 369 L 907 368.6 L 912 368.5 L 914 369.1 L 919.2 384 L 920.8 390 L 922.9 395 L 924 395.9 L 925.2 394 L 931.2 376 L 931.8 373 L 933 369.7 L 934 368.8 L 935 368.6 L 941 368.5 L 942.8 369 L 943.1 370 L 937.8 386 L 937.2 389 L 934.8 395 L 930.2 409 Z
M 992 414.1 L 991 414.4 L 985 414.4 L 984 413.9 L 983.6 413 L 983.4 379 L 983 378.1 L 982 377.6 L 971 377.4 L 970.1 377 L 969.6 376 L 969.5 373 L 969.6 370 L 970.1 369 L 971 368.6 L 1003 368.5 L 1005 368.6 L 1006 369.1 L 1006.4 370 L 1006.8 372 L 1007.4 374 L 1007.4 375 L 1007.2 376 L 1006.3 377 L 1005 377.4 L 995 377.5 L 994 377.7 L 993.6 378 L 993.4 379 L 993.5 381 L 993.5 406 L 993.2 408 L 992.6 410 L 992.8 413 Z
M 1074.3 414 L 1073 414.4 L 1067 414.4 L 1066 413.9 L 1065.6 413 L 1065.4 397 L 1065 396.1 L 1064 395.6 L 1049 395.5 L 1048 395.6 L 1047.1 396 L 1046.6 397 L 1046.5 412 L 1046.4 413 L 1046 413.9 L 1045 414.4 L 1042 414.5 L 1038 414.4 L 1037 413.9 L 1036.6 413 L 1036.5 372 L 1036.6 370 L 1037.1 369 L 1038 368.6 L 1044 368.5 L 1045 368.6 L 1046 369.1 L 1046.4 370 L 1046.6 385 L 1047 385.9 L 1048 386.4 L 1063 386.5 L 1064 386.4 L 1064.9 386 L 1065.4 385 L 1065.5 371 L 1065.6 370 L 1066 369.1 L 1067 368.6 L 1070 368.5 L 1074 368.6 L 1075 369.1 L 1075.4 370 L 1075.5 411 L 1075.2 413 Z
M 828 406.5 L 832 405.2 L 834 404.2 L 835 403.5 L 837.5 401 L 839.2 399 L 840.5 395 L 840.5 387 L 840.2 386 L 839.2 384 L 837.8 382 L 837 380.7 L 836 379.8 L 835 379.2 L 833 377.8 L 831 377.2 L 830 376.8 L 829 376.5 L 826 376.5 L 825 376.8 L 824 377.2 L 821 377.8 L 819.5 379 L 816 382.7 L 814.8 385 L 813.5 389 L 813.5 394 L 814.8 398 L 815.8 400 L 816.5 401 L 819 403.5 L 820 404.2 L 822 405.2 L 824 405.8 L 825 406.2 L 826 406.5 Z
M 763.2 388 L 764.2 386 L 764.5 385 L 764.5 382 L 764.2 381 L 763.5 380 L 762 378.5 L 761 377.8 L 760 377.5 L 749 377.5 L 748 377.6 L 747 378.1 L 746.6 379 L 746.5 387 L 746.6 389 L 747.1 390 L 748 390.4 L 759 390.5 L 760 390.2 L 762 389.2 Z" fill="#0E47FE"/>
  </g>
</svg>
